<?xml version="1.0" encoding="UTF-8"?>
<svg id="Layer_1" data-name="Layer 1" xmlns="http://www.w3.org/2000/svg" viewBox="0 0 507.07 152.16">
  <g>
    <path d="m38.32,8.6c4.49,0,8.48.78,11.96,2.33,3.49,1.55,6.2,3.68,8.13,6.37,1.93,2.69,2.9,5.77,2.9,9.22s-.86,6.6-2.59,9.43c-1.73,2.83-4.14,5.01-7.25,6.53,4.14,1.73,7.37,4.19,9.69,7.41,2.31,3.21,3.47,6.78,3.47,10.72,0,3.73-1.05,7.04-3.16,9.94-2.11,2.9-5.06,5.16-8.86,6.79-3.8,1.62-8.08,2.43-12.84,2.43H0V8.6h38.32Zm.26,26.15c1.35-1,2.02-2.3,2.02-3.88s-.67-2.88-2.02-3.88c-1.35-1-3.05-1.5-5.13-1.5h-13.47v10.77h13.47c2.07,0,3.78-.5,5.13-1.5Zm3.21,26.52c1.41-1.07,2.12-2.43,2.12-4.09s-.71-3.02-2.12-4.09c-1.42-1.07-3.2-1.61-5.33-1.61h-16.47v11.39h16.47c2.14,0,3.92-.53,5.33-1.61Z"/>
    <path d="m104.2,64.89c2.07-.79,4-1.88,5.8-3.26l10.98,11.08c-2.35,2.42-5.59,4.4-9.74,5.96s-8.25,2.33-12.33,2.33c-5.66,0-10.74-1.21-15.23-3.63-4.49-2.42-8.01-5.76-10.57-10.05-2.56-4.28-3.83-9.11-3.83-14.5s1.24-10.18,3.73-14.4c2.49-4.21,5.92-7.51,10.31-9.89,4.38-2.38,9.3-3.57,14.76-3.57,5.73,0,10.68,1.29,14.86,3.88,4.18,2.59,7.39,6.34,9.63,11.24,2.24,4.9,3.37,10.77,3.37,17.61h-37.91c.69,2.56,1.92,4.59,3.68,6.11,1.76,1.52,3.88,2.28,6.37,2.28,2,0,4.04-.4,6.11-1.19Zm-12.12-23.05c-1.66,1.31-2.9,3.11-3.73,5.39h18.44c-.62-2.28-1.69-4.07-3.21-5.39-1.52-1.31-3.35-1.97-5.49-1.97-2.35,0-4.35.66-6.01,1.97Z"/>
    <path d="m178.47,27.6c2.97,1.76,5.3,4.21,6.99,7.35,1.69,3.14,2.54,6.72,2.54,10.72v34.08h-19.06v-29.42c0-2.62-.76-4.75-2.28-6.37-1.52-1.62-3.45-2.43-5.8-2.43-2.21,0-4.04.78-5.49,2.33s-2.17,3.51-2.17,5.85v30.04h-19.99V26.21h19.99v5.39c1.66-2.07,3.8-3.69,6.42-4.87,2.62-1.17,5.52-1.76,8.7-1.76,3.8,0,7.18.88,10.15,2.64Z"/>
    <path d="m197.42,97.52c-2.28-.45-3.48-1.92-3.48-1.92l-.18-14.57c1.31.55,2.86,1.11,4.8,1.11,1.31,0,2.4-.52,3.26-1.55.86-1.04,1.29-2.35,1.29-3.94V26.21h19.99v52.93c0,3.66-.81,6.94-2.43,9.84-1.62,2.9-3.88,5.16-6.79,6.78-2.9,1.62-6.18,2.43-9.84,2.43-2.14,0-4.35-.22-6.63-.67Zm8.08-80.07c-2-2.04-3-4.47-3-7.3s1-5.14,3-7.15c2-2,4.45-3,7.35-3s5.14,1.02,7.15,3.06c2,2.04,3,4.4,3,7.09,0,2.83-1,5.27-3,7.3-2,2.04-4.39,3.06-7.15,3.06-2.9,0-5.35-1.02-7.35-3.06Z"/>
    <path d="m272.15,27.76c3.76,1.86,6.75,4.56,8.96,8.08,2.21,3.52,3.31,7.63,3.31,12.33v31.59h-19.16v-3.83c-1.8,1.66-3.9,2.92-6.32,3.78-2.42.86-4.9,1.29-7.46,1.29-3.8,0-7.25-.73-10.36-2.18-3.11-1.45-5.56-3.47-7.35-6.06-1.8-2.59-2.69-5.54-2.69-8.86s1-6.53,3-9.22c2-2.69,4.75-4.8,8.23-6.32,3.49-1.52,7.37-2.28,11.65-2.28,3.59,0,7.35.8,11.29,2.38v-.31c0-2.35-.97-4.16-2.9-5.44-1.93-1.28-4.63-1.92-8.08-1.92-4.49,0-8.74,1-12.74,3l-6.32-12.53c8.42-4.21,16.57-6.32,24.44-6.32,4.56,0,8.72.93,12.48,2.8Zm-9.69,38.95c1.66-.97,2.59-2.24,2.8-3.83v-2.69c-2.49-1.31-5.32-1.97-8.49-1.97-1.93,0-3.54.48-4.82,1.45-1.28.97-1.92,2.21-1.92,3.73,0,1.38.6,2.52,1.81,3.42,1.21.9,2.71,1.35,4.51,1.35,2.42,0,4.45-.48,6.11-1.45Z"/>
    <path d="m372.83,27.6c3.07,1.76,5.52,4.23,7.35,7.41,1.83,3.18,2.75,6.73,2.75,10.67v33.97h-19.06v-30.35c0-2.28-.71-4.14-2.12-5.59-1.42-1.45-3.23-2.18-5.44-2.18s-4.02.67-5.44,2.02c-1.42,1.35-2.12,3.06-2.12,5.13v30.97h-19.06v-30.35c0-2.28-.71-4.14-2.12-5.59-1.42-1.45-3.23-2.18-5.44-2.18s-4.02.67-5.44,2.02c-1.42,1.35-2.12,3.06-2.12,5.13v30.97h-19.99V26.21h19.99v6.53c1.31-2.42,3.18-4.31,5.59-5.7,2.42-1.38,5.18-2.07,8.29-2.07,3.66,0,7.03.88,10.1,2.64,3.07,1.76,5.51,4.16,7.3,7.2,1.24-3.04,3.35-5.44,6.32-7.2,2.97-1.76,6.46-2.64,10.46-2.64,3.73,0,7.13.88,10.2,2.64Z"/>
    <path d="m395.98,17.45c-2-2.04-3-4.47-3-7.3s1-5.14,3-7.15c2-2,4.45-3,7.35-3s5.14,1.02,7.15,3.06c2,2.04,3,4.4,3,7.09,0,2.83-1,5.27-3,7.3-2,2.04-4.39,3.06-7.15,3.06-2.9,0-5.35-1.02-7.35-3.06Zm-2.69,8.75h19.99v53.55h-19.99V26.21Z"/>
  </g>
  <path d="m477.13,34.96c-1.69-3.14-4.02-5.59-6.99-7.35-2.97-1.76-6.35-2.64-10.15-2.64-3.18,0-6.08.59-8.7,1.76-2.62,1.18-4.76,2.8-6.42,4.87v-5.39h-19.99v40.51c1.78-.7,3.72-1.1,5.75-1.1,6.29,0,11.7,3.68,14.24,9v-24.9c0-2.35.72-4.3,2.17-5.85,1.45-1.55,3.28-2.33,5.49-2.33,2.35,0,4.28.81,5.8,2.43,1.52,1.62,2.28,3.75,2.28,6.37v29.42h19.06v-34.08c0-4-.85-7.58-2.54-10.72Z"/>
  <g>
    <path d="m114.03,79.76h19.22l18.23,33.97,17.47-33.97h19.1l.88,71.16h-19.22v-38.12l-18.22,33.97-18.23-33.97v38.12h-19.22v-71.16Z"/>
    <path d="m235.28,136.05c2.07-.79,4-1.88,5.8-3.26l10.98,11.08c-2.35,2.42-5.59,4.4-9.74,5.96s-8.25,2.33-12.33,2.33c-5.66,0-10.74-1.21-15.23-3.63-4.49-2.42-8.01-5.76-10.57-10.05-2.56-4.28-3.83-9.11-3.83-14.5s1.24-10.18,3.73-14.4c2.49-4.21,5.92-7.51,10.31-9.89,4.38-2.38,9.3-3.57,14.76-3.57,5.73,0,10.68,1.29,14.86,3.88,4.18,2.59,7.39,6.34,9.63,11.24,2.24,4.9,3.37,10.77,3.37,17.61h-37.91c.69,2.56,1.92,4.59,3.68,6.11,1.76,1.52,3.88,2.28,6.37,2.28,2,0,4.04-.4,6.11-1.19Zm-12.12-23.05c-1.66,1.31-2.9,3.11-3.73,5.39h18.44c-.62-2.28-1.69-4.07-3.21-5.39-1.52-1.31-3.35-1.97-5.49-1.97-2.35,0-4.35.66-6.01,1.97Z"/>
    <path d="m265.11,78.51h19.32l-.25,72.4h-19.07v-72.4Z"/>
    <path d="m334.35,98.92c3.76,1.86,6.75,4.56,8.96,8.08,2.21,3.52,3.31,7.63,3.31,12.33v31.59h-19.16v-3.83c-1.8,1.66-3.9,2.92-6.32,3.78-2.42.86-4.9,1.29-7.46,1.29-3.8,0-7.25-.73-10.36-2.18-3.11-1.45-5.56-3.47-7.35-6.06-1.8-2.59-2.69-5.54-2.69-8.86s1-6.53,3-9.22c2-2.69,4.75-4.8,8.23-6.32,3.49-1.52,7.37-2.28,11.65-2.28,3.59,0,7.35.8,11.29,2.38v-.31c0-2.35-.97-4.16-2.9-5.44-1.93-1.28-4.63-1.92-8.08-1.92-4.49,0-8.74,1-12.74,3l-6.32-12.53c8.42-4.21,16.57-6.32,24.44-6.32,4.56,0,8.72.93,12.48,2.8Zm-9.69,38.95c1.66-.97,2.59-2.24,2.8-3.83v-2.69c-2.49-1.31-5.32-1.97-8.49-1.97-1.93,0-3.54.48-4.82,1.45-1.28.97-1.92,2.21-1.92,3.73,0,1.38.6,2.52,1.81,3.42,1.21.9,2.71,1.35,4.51,1.35,2.42,0,4.45-.48,6.11-1.45Z"/>
    <path d="m349.42,97.36h20.51l12.12,30.66,11.81-30.66h20.51l-23.1,53.55h-18.44l-23.41-53.55Z"/>
    <path d="m423.37,88.61c-2-2.04-3-4.47-3-7.3s1-5.14,3-7.15c2-2,4.45-3,7.35-3s5.14,1.02,7.15,3.06c2,2.04,3,4.4,3,7.09,0,2.83-1,5.27-3,7.3-2,2.04-4.39,3.06-7.15,3.06-2.9,0-5.35-1.02-7.35-3.06Zm-2.69,8.75h19.99v53.55h-19.99v-53.55Z"/>
    <path d="m497.54,98.76c2.97,1.76,5.3,4.21,6.99,7.35,1.69,3.14,2.54,6.72,2.54,10.72v34.08h-19.06v-29.42c0-2.62-.76-4.75-2.28-6.37-1.52-1.62-3.45-2.43-5.8-2.43-2.21,0-4.04.78-5.49,2.33s-2.17,3.51-2.17,5.85v30.04h-19.99v-53.55h19.99v5.39c1.66-2.07,3.8-3.69,6.42-4.87,2.62-1.17,5.52-1.76,8.7-1.76,3.8,0,7.18.88,10.15,2.64Z"/>
  </g>
</svg>